<svg xmlns="http://www.w3.org/2000/svg" width="1200" height="630" viewBox="0 0 1200 630" fill="none">
  
  <rect width="1200" height="630" fill="#0C0C0E" rx="0" />
  
  
  <radialGradient id="glow" cx="50%" cy="45%" r="35%">
    <stop offset="0%" stop-color="#E8E8E8" stop-opacity="0.04" />
    <stop offset="100%" stop-color="#E8E8E8" stop-opacity="0" />
  </radialGradient>
  <rect width="1200" height="630" fill="url(#glow)" />
  
  
  <g transform="translate(91.47, 28.15)">
  <g transform="translate(310, 220)">
    <path d="M6 16 L22 42 L6 68" stroke="#E8E8E8" stroke-width="5" stroke-linecap="round" stroke-linejoin="round" fill="none" />
    <line x1="29" y1="42" x2="42" y2="42" stroke="#E8E8E8" stroke-width="4.5" stroke-linecap="round" />
    <path d="M42 42 L60 22" stroke="#E8E8E8" stroke-width="4.5" stroke-linecap="round" />
    <path d="M42 42 L60 62" stroke="#E8E8E8" stroke-width="4.5" stroke-linecap="round" />
    <circle cx="60" cy="22" r="5" fill="#E8E8E8" />
    <circle cx="60" cy="62" r="5" fill="#E8E8E8" />
  </g>
  
  
  <g fill="#E8E8E8" aria-label="CODEMUX"><path d="M308 -14Q188 -14 118.0 59.5Q48 133 48 272V428Q48 563 118.0 638.5Q188 714 308 714Q433 714 498.5 644.0Q564 574 564 454V436H432V454Q432 487 421.0 519.5Q410 552 383.0 573.0Q356 594 308 594Q264 594 235.5 572.5Q207 551 193.5 515.5Q180 480 180 438V262Q180 194 209.0 150.0Q238 106 308 106Q359 106 386.0 126.0Q413 146 422.5 178.0Q432 210 432 246V264H564V246Q564 122 498.5 54.0Q433 -14 308 -14Z" transform="translate(410.00, 280.00) scale(0.062000, -0.062000)" /><path d="M306 -14Q186 -14 117.0 59.5Q48 133 48 272V428Q48 563 117.0 638.5Q186 714 306 714Q426 714 495.0 638.5Q564 563 564 428V272Q564 133 495.0 59.5Q426 -14 306 -14ZM306 106Q378 106 405.0 150.0Q432 194 432 264V436Q432 480 419.0 516.0Q406 552 378.5 573.0Q351 594 306 594Q261 594 233.0 573.0Q205 552 192.5 516.0Q180 480 180 436V264Q180 194 207.0 150.0Q234 106 306 106Z" transform="translate(452.94, 280.00) scale(0.062000, -0.062000)" /><path d="M46 0V127H112V574H46V700H300Q429 700 492.5 639.0Q556 578 556 452V248Q556 122 492.5 61.0Q429 0 300 0ZM244 126H300Q369 126 396.5 158.5Q424 191 424 260V452Q424 512 396.5 543.0Q369 574 300 574H244Z" transform="translate(495.89, 280.00) scale(0.062000, -0.062000)" /><path d="M82 0V700H524V574H214V414H512V288H214V126H536V0Z" transform="translate(538.83, 280.00) scale(0.062000, -0.062000)" /><path d="M22 0V700H254L294 174V72H318V174L358 700H590V0H470V468L482 628H458L406 0H208L154 628H130L142 468V0Z" transform="translate(581.78, 280.00) scale(0.062000, -0.062000)" /><path d="M306 -14Q182 -14 118.0 54.5Q54 123 54 242V700H186V242Q186 181 215.5 145.5Q245 110 306 110Q368 110 397.0 145.5Q426 181 426 242V700H558V242Q558 123 494.5 54.5Q431 -14 306 -14Z" transform="translate(624.72, 280.00) scale(0.062000, -0.062000)" /><path d="M33 0 177 342V360L33 700H176L294 414H318L436 700H579L435 360V342L579 0H436L318 288H294L176 0Z" transform="translate(667.66, 280.00) scale(0.062000, -0.062000)" /></g><g fill="#6B6B75" aria-label="AGENTIC DEVELOPMENT ENVIRONMENT" transform="translate(-46.20, 0)"><path d="M15 0 182 700H430L597 0H459L425 150H187L153 0ZM215 276H396L315 634H297Z" transform="translate(362.20, 340.00) scale(0.014000, -0.014000)" /><path d="M274 -14Q210 -14 158.0 17.5Q106 49 75.0 112.0Q44 175 44 268V432Q44 523 77.5 586.0Q111 649 170.0 681.5Q229 714 306 714Q386 714 443.0 680.0Q500 646 530.0 588.5Q560 531 560 460V448H428V460Q428 523 395.5 555.5Q363 588 304 588Q249 588 212.5 551.0Q176 514 176 422V274Q176 112 308 112Q367 112 397.5 144.0Q428 176 428 228H260V354H560V0H440V78H422Q410 39 376.0 12.5Q342 -14 274 -14Z" transform="translate(374.76, 340.00) scale(0.014000, -0.014000)" /><path d="M82 0V700H524V574H214V414H512V288H214V126H536V0Z" transform="translate(387.33, 340.00) scale(0.014000, -0.014000)" /><path d="M61 0V700H319L401 66H419V700H551V0H293L211 634H193V0Z" transform="translate(399.90, 340.00) scale(0.014000, -0.014000)" /><path d="M240 0V574H54V700H558V574H372V0Z" transform="translate(412.47, 340.00) scale(0.014000, -0.014000)" /><path d="M72 0V126H240V574H72V700H540V574H372V126H540V0Z" transform="translate(425.04, 340.00) scale(0.014000, -0.014000)" /><path d="M308 -14Q188 -14 118.0 59.5Q48 133 48 272V428Q48 563 118.0 638.5Q188 714 308 714Q433 714 498.5 644.0Q564 574 564 454V436H432V454Q432 487 421.0 519.5Q410 552 383.0 573.0Q356 594 308 594Q264 594 235.5 572.5Q207 551 193.5 515.5Q180 480 180 438V262Q180 194 209.0 150.0Q238 106 308 106Q359 106 386.0 126.0Q413 146 422.5 178.0Q432 210 432 246V264H564V246Q564 122 498.5 54.0Q433 -14 308 -14Z" transform="translate(437.60, 340.00) scale(0.014000, -0.014000)" /><path d="M46 0V127H112V574H46V700H300Q429 700 492.5 639.0Q556 578 556 452V248Q556 122 492.5 61.0Q429 0 300 0ZM244 126H300Q369 126 396.5 158.5Q424 191 424 260V452Q424 512 396.5 543.0Q369 574 300 574H244Z" transform="translate(462.74, 340.00) scale(0.014000, -0.014000)" /><path d="M82 0V700H524V574H214V414H512V288H214V126H536V0Z" transform="translate(475.31, 340.00) scale(0.014000, -0.014000)" /><path d="M182 0 24 700H160L297 66H315L452 700H588L430 0Z" transform="translate(487.88, 340.00) scale(0.014000, -0.014000)" /><path d="M82 0V700H524V574H214V414H512V288H214V126H536V0Z" transform="translate(500.44, 340.00) scale(0.014000, -0.014000)" /><path d="M82 0V700H214V126H532V0Z" transform="translate(513.01, 340.00) scale(0.014000, -0.014000)" /><path d="M306 -14Q186 -14 117.0 59.5Q48 133 48 272V428Q48 563 117.0 638.5Q186 714 306 714Q426 714 495.0 638.5Q564 563 564 428V272Q564 133 495.0 59.5Q426 -14 306 -14ZM306 106Q378 106 405.0 150.0Q432 194 432 264V436Q432 480 419.0 516.0Q406 552 378.5 573.0Q351 594 306 594Q261 594 233.0 573.0Q205 552 192.5 516.0Q180 480 180 436V264Q180 194 207.0 150.0Q234 106 306 106Z" transform="translate(525.58, 340.00) scale(0.014000, -0.014000)" /><path d="M72 0V700H346Q418 700 465.5 670.5Q513 641 536.5 594.5Q560 548 560 497V473Q560 421 536.5 373.0Q513 325 465.5 294.5Q418 264 346 264H204V0ZM204 390H333Q377 390 402.5 414.0Q428 438 428 476V488Q428 526 402.5 550.0Q377 574 333 574H204Z" transform="translate(538.15, 340.00) scale(0.014000, -0.014000)" /><path d="M22 0V700H254L294 174V72H318V174L358 700H590V0H470V468L482 628H458L406 0H208L154 628H130L142 468V0Z" transform="translate(550.72, 340.00) scale(0.014000, -0.014000)" /><path d="M82 0V700H524V574H214V414H512V288H214V126H536V0Z" transform="translate(563.28, 340.00) scale(0.014000, -0.014000)" /><path d="M61 0V700H319L401 66H419V700H551V0H293L211 634H193V0Z" transform="translate(575.85, 340.00) scale(0.014000, -0.014000)" /><path d="M240 0V574H54V700H558V574H372V0Z" transform="translate(588.42, 340.00) scale(0.014000, -0.014000)" /><path d="M82 0V700H524V574H214V414H512V288H214V126H536V0Z" transform="translate(613.56, 340.00) scale(0.014000, -0.014000)" /><path d="M61 0V700H319L401 66H419V700H551V0H293L211 634H193V0Z" transform="translate(626.12, 340.00) scale(0.014000, -0.014000)" /><path d="M182 0 24 700H160L297 66H315L452 700H588L430 0Z" transform="translate(638.69, 340.00) scale(0.014000, -0.014000)" /><path d="M72 0V126H240V574H72V700H540V574H372V126H540V0Z" transform="translate(651.26, 340.00) scale(0.014000, -0.014000)" /><path d="M73 0V700H341Q413 700 462.0 674.0Q511 648 536.0 604.5Q561 561 561 507V483Q561 440 537.5 402.5Q514 365 467 345V327Q502 323 522.5 300.0Q543 277 543 242V0H411V210Q411 234 398.5 249.0Q386 264 357 264H205V0ZM205 390H331Q379 390 404.0 413.0Q429 436 429 476V488Q429 523 404.0 548.5Q379 574 331 574H205Z" transform="translate(663.83, 340.00) scale(0.014000, -0.014000)" /><path d="M306 -14Q186 -14 117.0 59.5Q48 133 48 272V428Q48 563 117.0 638.5Q186 714 306 714Q426 714 495.0 638.5Q564 563 564 428V272Q564 133 495.0 59.5Q426 -14 306 -14ZM306 106Q378 106 405.0 150.0Q432 194 432 264V436Q432 480 419.0 516.0Q406 552 378.5 573.0Q351 594 306 594Q261 594 233.0 573.0Q205 552 192.5 516.0Q180 480 180 436V264Q180 194 207.0 150.0Q234 106 306 106Z" transform="translate(676.40, 340.00) scale(0.014000, -0.014000)" /><path d="M61 0V700H319L401 66H419V700H551V0H293L211 634H193V0Z" transform="translate(688.96, 340.00) scale(0.014000, -0.014000)" /><path d="M22 0V700H254L294 174V72H318V174L358 700H590V0H470V468L482 628H458L406 0H208L154 628H130L142 468V0Z" transform="translate(701.53, 340.00) scale(0.014000, -0.014000)" /><path d="M82 0V700H524V574H214V414H512V288H214V126H536V0Z" transform="translate(714.10, 340.00) scale(0.014000, -0.014000)" /><path d="M61 0V700H319L401 66H419V700H551V0H293L211 634H193V0Z" transform="translate(726.67, 340.00) scale(0.014000, -0.014000)" /><path d="M240 0V574H54V700H558V574H372V0Z" transform="translate(739.24, 340.00) scale(0.014000, -0.014000)" /></g>
  </g>
</svg>